<svg width="146" height="37" viewBox="0 0 146 37" fill="none" xmlns="http://www.w3.org/2000/svg">
<path d="M13.25 34.6666H21.75M13.25 6.33331H21.75M7.58331 13.4166C7.58331 12.6652 7.88182 11.9445 8.41318 11.4132C8.94453 10.8818 9.6652 10.5833 10.4166 10.5833H24.5833C25.3348 10.5833 26.0554 10.8818 26.5868 11.4132C27.1181 11.9445 27.4166 12.6652 27.4166 13.4166V27.5833C27.4166 28.3348 27.1181 29.0554 26.5868 29.5868C26.0554 30.1181 25.3348 30.4166 24.5833 30.4166H10.4166C9.6652 30.4166 8.94453 30.1181 8.41318 29.5868C7.88182 29.0554 7.58331 28.3348 7.58331 27.5833V13.4166Z" stroke="black" stroke-width="3" stroke-linecap="round" stroke-linejoin="round"/>
<path d="M55.9746 24.4473C55.9746 25.847 55.4863 26.9131 54.5098 27.6455C53.5413 28.3779 52.0887 28.7441 50.1519 28.7441C49.159 28.7441 48.3127 28.675 47.6128 28.5366C46.9129 28.4064 46.2578 28.2111 45.6475 27.9507V24.8745C46.3392 25.2 47.1164 25.4727 47.979 25.6924C48.8498 25.9121 49.6147 26.022 50.2739 26.022C51.6248 26.022 52.3003 25.6313 52.3003 24.8501C52.3003 24.5571 52.2108 24.3211 52.0317 24.1421C51.8527 23.9549 51.5435 23.7474 51.104 23.5195C50.6646 23.2835 50.0786 23.0109 49.3462 22.7017C48.2964 22.2622 47.5233 21.8553 47.0269 21.481C46.5386 21.1066 46.1805 20.6794 45.9526 20.1992C45.7329 19.7109 45.623 19.1128 45.623 18.4048C45.623 17.1922 46.091 16.2563 47.0269 15.5972C47.9709 14.9299 49.3055 14.5962 51.0308 14.5962C52.6746 14.5962 54.2738 14.9543 55.8281 15.6704L54.7051 18.356C54.0215 18.063 53.3826 17.8229 52.7886 17.6357C52.1945 17.4486 51.5882 17.355 50.9697 17.355C49.8711 17.355 49.3218 17.652 49.3218 18.2461C49.3218 18.5798 49.4967 18.8687 49.8467 19.1128C50.2048 19.3569 50.9819 19.7191 52.1782 20.1992C53.2443 20.6305 54.0256 21.0334 54.522 21.4077C55.0184 21.7821 55.3846 22.2134 55.6206 22.7017C55.8566 23.1899 55.9746 23.7718 55.9746 24.4473ZM66.375 28.7441C64.7718 28.7441 63.5145 28.1623 62.603 26.9985H62.4077C62.5379 28.1379 62.603 28.797 62.603 28.9761V34.5059H58.8799V14.8525H61.9072L62.4321 16.6226H62.603C63.4738 15.2716 64.7637 14.5962 66.4727 14.5962C68.084 14.5962 69.3454 15.2188 70.2568 16.4639C71.1683 17.709 71.624 19.4383 71.624 21.6519C71.624 23.1086 71.4084 24.374 70.9771 25.4482C70.5539 26.5225 69.9476 27.3403 69.1582 27.9019C68.3688 28.4634 67.4411 28.7441 66.375 28.7441ZM65.2764 17.5747C64.3568 17.5747 63.6854 17.8595 63.2622 18.4292C62.839 18.9907 62.6193 19.9225 62.603 21.2246V21.6274C62.603 23.0923 62.8187 24.1421 63.25 24.7769C63.6895 25.4116 64.3812 25.729 65.3252 25.729C66.9935 25.729 67.8276 24.3537 67.8276 21.603C67.8276 20.2603 67.6201 19.2552 67.2051 18.5879C66.7982 17.9124 66.1553 17.5747 65.2764 17.5747ZM77.6665 21.6519C77.6665 23.0028 77.8862 24.0241 78.3257 24.7158C78.7733 25.4076 79.4976 25.7534 80.4985 25.7534C81.4914 25.7534 82.2035 25.4116 82.6348 24.728C83.0742 24.0363 83.2939 23.0109 83.2939 21.6519C83.2939 20.3009 83.0742 19.2878 82.6348 18.6123C82.1953 17.9368 81.4751 17.5991 80.4741 17.5991C79.4813 17.5991 78.7651 17.9368 78.3257 18.6123C77.8862 19.2796 77.6665 20.2928 77.6665 21.6519ZM87.1025 21.6519C87.1025 23.8735 86.5166 25.611 85.3447 26.8643C84.1729 28.1175 82.5412 28.7441 80.4497 28.7441C79.1395 28.7441 77.9839 28.4593 76.9829 27.8896C75.9819 27.3118 75.2129 26.4858 74.6758 25.4116C74.1387 24.3374 73.8701 23.0841 73.8701 21.6519C73.8701 19.422 74.452 17.6886 75.6157 16.4517C76.7795 15.2147 78.4152 14.5962 80.5229 14.5962C81.8332 14.5962 82.9888 14.881 83.9897 15.4507C84.9907 16.0203 85.7598 16.8382 86.2969 17.9043C86.834 18.9704 87.1025 20.2196 87.1025 21.6519ZM97.7959 14.5962C98.3005 14.5962 98.7196 14.6328 99.0532 14.7061L98.7725 18.1973C98.4714 18.1159 98.1051 18.0752 97.6738 18.0752C96.4857 18.0752 95.5579 18.3804 94.8906 18.9907C94.2314 19.6011 93.9019 20.4556 93.9019 21.5542V28.5H90.1787V14.8525H92.9985L93.5479 17.1475H93.731C94.1541 16.3825 94.7238 15.7681 95.4399 15.3042C96.1642 14.8322 96.9495 14.5962 97.7959 14.5962ZM107.281 25.7778C107.932 25.7778 108.713 25.6354 109.625 25.3506V28.1216C108.697 28.5366 107.557 28.7441 106.207 28.7441C104.717 28.7441 103.631 28.3698 102.947 27.6211C102.272 26.8643 101.934 25.7331 101.934 24.2275V17.6479H100.152V16.0732L102.203 14.8281L103.277 11.9473H105.657V14.8525H109.478V17.6479H105.657V24.2275C105.657 24.7565 105.804 25.1471 106.097 25.3994C106.398 25.6517 106.792 25.7778 107.281 25.7778ZM119.988 14.5962C121.6 14.5962 122.861 15.2269 123.772 16.4883C124.684 17.7415 125.14 19.4627 125.14 21.6519C125.14 23.9061 124.668 25.6517 123.724 26.8887C122.788 28.1257 121.51 28.7441 119.891 28.7441C118.287 28.7441 117.03 28.1623 116.119 26.9985H115.862L115.24 28.5H112.396V9.50586H116.119V13.9248C116.119 14.4863 116.07 15.3856 115.972 16.6226H116.119C116.989 15.2716 118.279 14.5962 119.988 14.5962ZM118.792 17.5747C117.872 17.5747 117.201 17.8595 116.778 18.4292C116.355 18.9907 116.135 19.9225 116.119 21.2246V21.6274C116.119 23.0923 116.334 24.1421 116.766 24.7769C117.205 25.4116 117.897 25.729 118.841 25.729C119.606 25.729 120.212 25.3791 120.66 24.6792C121.115 23.9712 121.343 22.9458 121.343 21.603C121.343 20.2603 121.115 19.2552 120.66 18.5879C120.204 17.9124 119.581 17.5747 118.792 17.5747ZM128.057 11.3247C128.057 10.1121 128.733 9.50586 130.083 9.50586C131.434 9.50586 132.11 10.1121 132.11 11.3247C132.11 11.9025 131.939 12.3542 131.597 12.6797C131.264 12.9971 130.759 13.1558 130.083 13.1558C128.733 13.1558 128.057 12.5454 128.057 11.3247ZM131.939 28.5H128.216V14.8525H131.939V28.5ZM141.607 25.7778C142.258 25.7778 143.039 25.6354 143.951 25.3506V28.1216C143.023 28.5366 141.884 28.7441 140.533 28.7441C139.043 28.7441 137.957 28.3698 137.273 27.6211C136.598 26.8643 136.26 25.7331 136.26 24.2275V17.6479H134.478V16.0732L136.529 14.8281L137.603 11.9473H139.983V14.8525H143.804V17.6479H139.983V24.2275C139.983 24.7565 140.13 25.1471 140.423 25.3994C140.724 25.6517 141.119 25.7778 141.607 25.7778Z" fill="black"/>
</svg>
